<svg width="32" height="32" viewBox="0 0 32 32" fill="none" xmlns="http://www.w3.org/2000/svg">
<path d="M9.31888 18.5034L8.48348 21.622L5.4301 21.6866C4.51759 19.9941 4 18.0577 4 15.9999C4 14.01 4.48394 12.1335 5.34174 10.4812H5.3424L8.06076 10.9796L9.25157 13.6816C9.00234 14.4082 8.86649 15.1882 8.86649 15.9999C8.86659 16.8807 9.02615 17.7247 9.31888 18.5034Z" fill="#FBBB00"/>
<path d="M27.7909 13.7578C27.9287 14.4837 28.0005 15.2334 28.0005 15.9996C28.0005 16.8587 27.9102 17.6967 27.7381 18.5051C27.154 21.2558 25.6276 23.6578 23.5131 25.3575L23.5125 25.3569L20.0885 25.1822L19.604 22.1571C21.007 21.3343 22.1035 20.0466 22.6811 18.5051H16.2644V13.7578H22.7747H27.7909Z" fill="#518EF8"/>
<path d="M23.5114 25.3577L23.512 25.3584C21.4556 27.0113 18.8432 28.0003 15.9995 28.0003C11.4297 28.0003 7.45651 25.4461 5.42969 21.6872L9.31847 18.5039C10.3319 21.2085 12.9409 23.1338 15.9995 23.1338C17.3142 23.1338 18.5459 22.7784 19.6028 22.1579L23.5114 25.3577Z" fill="#28B446"/>
<path d="M23.6588 6.76261L19.7713 9.94522C18.6775 9.26151 17.3845 8.86654 15.9993 8.86654C12.8714 8.86654 10.2136 10.8801 9.25094 13.6817L5.34172 10.4813H5.34106C7.33821 6.63075 11.3615 4 15.9993 4C18.9109 4 21.5806 5.03715 23.6588 6.76261Z" fill="#F14336"/>
</svg>
