<svg width="32" height="32" viewBox="0 0 32 32" fill="none" xmlns="http://www.w3.org/2000/svg">
<path d="M22.99 15.4171C23.0238 19.0491 26.1762 20.2577 26.2112 20.2731C26.1845 20.3583 25.7074 21.9954 24.5503 23.6865C23.5499 25.1486 22.5118 26.6052 20.8763 26.6354C19.2693 26.665 18.7526 25.6825 16.9153 25.6825C15.0786 25.6825 14.5045 26.6053 12.9833 26.665C11.4047 26.7248 10.2025 25.0841 9.19395 23.6274C7.13295 20.6477 5.55792 15.2076 7.67279 11.5354C8.72341 9.71173 10.6009 8.55693 12.6389 8.52732C14.189 8.49775 15.6522 9.57022 16.5998 9.57022C17.5469 9.57022 19.325 8.28048 21.1942 8.46989C21.9767 8.50246 24.1733 8.78599 25.5837 10.8505C25.4701 10.921 22.9628 12.3806 22.99 15.4171ZM19.9699 6.49859C20.808 5.48409 21.3721 4.07182 21.2182 2.66663C20.0101 2.71518 18.5493 3.47165 17.6828 4.48558C16.9062 5.38347 16.2261 6.82059 16.4096 8.19798C17.7561 8.30216 19.1317 7.51372 19.9699 6.49859Z" fill="black"/>
</svg>
